<svg width="40" height="40" fill="none" xmlns="http://www.w3.org/2000/svg">
  <g clip-path="url(#clip0)">
    <rect width="40" height="40" rx="8" fill="#fff"/>
    <path fill="#fff" d="M0 0h40.446v40.446H0z"/>
    <path d="M23.495 15.094l-3.492 3.492-3.49-3.492a4.936 4.936 0 010-6.982 4.938 4.938 0 016.982 6.982zM16.513 24.904l3.491-3.491 3.49 3.491a4.936 4.936 0 010 6.982 4.936 4.936 0 01-6.981 0 4.936 4.936 0 010-6.982zM24.906 23.49L21.414 20l3.492-3.491a4.936 4.936 0 016.982 0 4.936 4.936 0 010 6.982 4.936 4.936 0 01-6.982 0zM15.096 16.509L18.588 20l-3.492 3.49a4.936 4.936 0 01-6.981 0 4.936 4.936 0 010-6.981 4.936 4.936 0 016.981 0z" fill="#27893C"/>
  </g>
  <defs>
    <clipPath id="clip0">
      <rect width="40" height="40" rx="8" fill="#fff"/>
    </clipPath>
  </defs>
</svg>